# xmcd
#
# Track frame offsets:
#	150
#	13504
#	24887
#	38276
#	49187
#	64088
#	80839
#	93555
#	104811
#	120798
#
# Disc length: 1798 seconds
#
# Revision: 0
# Processed by: cddbd v1.4PL0 Copyright (c) Steve Scherf et al.
# Submitted via: EasyCDDAExtractor 4.6.9.1
#
DISCID=7207040a
DTITLE=Banda el Recodo - Tengo Una Ilusión
DYEAR=2000
DGENRE=Latin
TTITLE0=Hasta Cuando
TTITLE1=El Farol
TTITLE2=El Pájaro Burion
TTITLE3=El Comerciante
TTITLE4=Regresa
TTITLE5=Lindo Michoacán
TTITLE6=Nina Orgullosa
TTITLE7=Ni Con Mil Amores
TTITLE8=Te Quejas De Quererme
TTITLE9=Estampa Sinaloense
EXTD=
EXTT0=
EXTT1=
EXTT2=
EXTT3=
EXTT4=
EXTT5=
EXTT6=
EXTT7=
EXTT8=
EXTT9=
PLAYORDER=
